<?xml version="1.0"?>
<svg xmlns="http://www.w3.org/2000/svg" version="1.2" baseProfile="tiny" width="800" height="1215" viewBox="0 0 800 1215" stroke-linecap="round" stroke-linejoin="round">
<g id="aggregate">
<circle cx="135.5931" cy="1066.0811" r="4" fill="green"/>
<circle cx="162.2014" cy="959.2604" r="4" fill="green"/>
<circle cx="44.195" cy="1110.9052" r="4" fill="green"/>
<circle cx="38.2359" cy="1120.0303" r="4" fill="green"/>
<circle cx="27.894" cy="1168.5476" r="4" fill="green"/>
<circle cx="110.1983" cy="1126.8397" r="4" fill="green"/>
<circle cx="136.1761" cy="952.6984" r="4" fill="green"/>
<circle cx="138.8748" cy="1071.9328" r="4" fill="green"/>
<circle cx="114.0914" cy="1140.3752" r="4" fill="green"/>
<circle cx="115.3725" cy="1057.5323" r="4" fill="green"/>
<circle cx="122.6061" cy="1065.1405" r="4" fill="green"/>
<circle cx="116.6015" cy="1062.6032" r="4" fill="green"/>
<circle cx="41.0072" cy="1121.2012" r="4" fill="green"/>
<circle cx="40.4367" cy="1132.5511" r="4" fill="green"/>
<circle cx="110.6508" cy="1055.5806" r="4" fill="green"/>
<circle cx="61.58" cy="1141.6453" r="4" fill="green"/>
<circle cx="58.0781" cy="1163.2521" r="4" fill="green"/>
<circle cx="48.5426" cy="1140.7442" r="4" fill="green"/>
<circle cx="74.4609" cy="1147.0708" r="4" fill="green"/>
<circle cx="79.4427" cy="1142.0409" r="4" fill="green"/>
<circle cx="68.6683" cy="1132.9107" r="4" fill="green"/>
<circle cx="65.9997" cy="1131.7788" r="4" fill="green"/>
<circle cx="178.1095" cy="970.3824" r="4" fill="green"/>
<circle cx="111.3245" cy="1132.0666" r="4" fill="green"/>
<circle cx="108.9715" cy="1030.4618" r="4" fill="green"/>
<circle cx="56.5314" cy="1079.2772" r="4" fill="green"/>
<circle cx="114.3009" cy="1133.3157" r="4" fill="green"/>
<circle cx="194.4977" cy="954.2023" r="4" fill="green"/>
<circle cx="374.6586" cy="589.8356" r="4" fill="green"/>
<circle cx="40.6575" cy="1102.4014" r="4" fill="green"/>
<circle cx="42.2902" cy="1121.7476" r="4" fill="green"/>
<circle cx="138.1861" cy="1106.6456" r="4" fill="green"/>
<circle cx="141.4437" cy="1068.4624" r="4" fill="green"/>
<circle cx="37.7656" cy="1136.1776" r="4" fill="green"/>
<circle cx="32.2769" cy="1129.1163" r="4" fill="green"/>
<circle cx="27.7148" cy="1116.3219" r="4" fill="green"/>
<circle cx="174.3114" cy="968.7818" r="4" fill="green"/>
<circle cx="36.8479" cy="1124.0472" r="4" fill="green"/>
<circle cx="192.8058" cy="950.8083" r="4" fill="green"/>
<circle cx="360.5752" cy="602.3486" r="4" fill="green"/>
<circle cx="139.6417" cy="993.9262" r="4" fill="green"/>
<circle cx="105.5934" cy="1013.1041" r="4" fill="green"/>
<circle cx="68.0974" cy="1144.4165" r="4" fill="green"/>
<circle cx="64.4382" cy="1076.5884" r="4" fill="green"/>
<circle cx="55.3451" cy="1089.9638" r="4" fill="green"/>
<circle cx="118.1914" cy="978.8634" r="4" fill="green"/>
<circle cx="45.0491" cy="1146.6327" r="4" fill="green"/>
<circle cx="116.5884" cy="998.1305" r="4" fill="green"/>
<circle cx="59.4596" cy="1075.2997" r="4" fill="green"/>
<circle cx="73.2293" cy="1146.5243" r="4" fill="green"/>
<circle cx="144.6551" cy="1104.7368" r="4" fill="green"/>
<circle cx="154.2122" cy="1090.075" r="4" fill="green"/>
<circle cx="144.0454" cy="1094.6347" r="4" fill="green"/>
<circle cx="133.67" cy="1104.7329" r="4" fill="green"/>
<circle cx="68.8198" cy="1137.5522" r="4" fill="green"/>
<circle cx="141.939" cy="1097.4812" r="4" fill="green"/>
<circle cx="367.3388" cy="561.0086" r="4" fill="green"/>
<circle cx="39.7242" cy="1120.6548" r="4" fill="green"/>
<circle cx="75.2884" cy="1135.682" r="4" fill="green"/>
<circle cx="120.4533" cy="1059.6403" r="4" fill="green"/>
<circle cx="46.4531" cy="1111.842" r="4" fill="green"/>
<circle cx="71.5333" cy="1150.4242" r="4" fill="green"/>
<circle cx="120.386" cy="1000.5111" r="4" fill="green"/>
<circle cx="59.9378" cy="1140.9427" r="4" fill="green"/>
<circle cx="137.9025" cy="1067.096" r="4" fill="green"/>
<circle cx="51.3861" cy="1102.1316" r="4" fill="green"/>
<circle cx="59.4038" cy="1083.4904" r="4" fill="green"/>
<circle cx="50.0583" cy="1088.9871" r="4" fill="green"/>
<circle cx="141.5363" cy="1084.6879" r="4" fill="green"/>
<circle cx="62.5375" cy="1079.24" r="4" fill="green"/>
<circle cx="52.8327" cy="1084.3465" r="4" fill="green"/>
<circle cx="60.7589" cy="1141.294" r="4" fill="green"/>
<circle cx="41.6743" cy="1121.4744" r="4" fill="green"/>
<circle cx="124.5577" cy="978.3586" r="4" fill="green"/>
<circle cx="72.2093" cy="1134.3939" r="4" fill="green"/>
<circle cx="425.3422" cy="599.2615" r="4" fill="green"/>
<circle cx="110.47" cy="1013.7688" r="4" fill="green"/>
<circle cx="140.6929" cy="954.6112" r="4" fill="green"/>
<circle cx="428.1543" cy="668.5718" r="4" fill="green"/>
<circle cx="135.3192" cy="1094.1635" r="4" fill="green"/>
<circle cx="154.5303" cy="1074.1227" r="4" fill="green"/>
<circle cx="61.6376" cy="1129.9442" r="4" fill="green"/>
<circle cx="127.6654" cy="1102.7806" r="4" fill="green"/>
<circle cx="69.3266" cy="1149.4874" r="4" fill="green"/>
<circle cx="57.5772" cy="1139.9669" r="4" fill="green"/>
<circle cx="799" cy="1" r="4" fill="green"/>
<circle cx="107.4756" cy="1130.4661" r="4" fill="green"/>
<circle cx="56.7561" cy="1139.6156" r="4" fill="green"/>
<circle cx="55.9838" cy="1143.9057" r="4" fill="green"/>
<circle cx="66.4931" cy="1073.8198" r="4" fill="green"/>
<circle cx="73.0279" cy="1139.3476" r="4" fill="green"/>
<circle cx="77.4951" cy="1136.6188" r="4" fill="green"/>
<circle cx="122.8225" cy="1132.1485" r="4" fill="green"/>
<circle cx="50.9693" cy="1113.7155" r="4" fill="green"/>
<circle cx="420.831" cy="534.0067" r="4" fill="green"/>
<circle cx="45.1625" cy="1125.9219" r="4" fill="green"/>
<circle cx="128.1577" cy="967.9849" r="4" fill="green"/>
<circle cx="361.1775" cy="618.8473" r="4" fill="green"/>
<circle cx="129.4825" cy="984.4838" r="4" fill="green"/>
<circle cx="153.6286" cy="957.8531" r="4" fill="green"/>
<circle cx="1" cy="1163.9376" r="4" fill="green"/>
<circle cx="42.9573" cy="1122.0209" r="4" fill="green"/>
<circle cx="66.2989" cy="1148.1213" r="4" fill="green"/>
<circle cx="43.6341" cy="1103.6504" r="4" fill="green"/>
<circle cx="57.9698" cy="1077.3275" r="4" fill="green"/>
<circle cx="61.0007" cy="1073.194" r="4" fill="green"/>
<circle cx="142.8428" cy="964.8308" r="4" fill="green"/>
<circle cx="183.097" cy="958.9563" r="4" fill="green"/>
<circle cx="120.2024" cy="1135.8529" r="4" fill="green"/>
<circle cx="35.0994" cy="1130.3263" r="4" fill="green"/>
<circle cx="107.957" cy="1009.5946" r="4" fill="green"/>
<circle cx="40.1837" cy="1125.4523" r="4" fill="green"/>
<circle cx="55.0626" cy="1138.874" r="4" fill="green"/>
<circle cx="179.961" cy="965.4686" r="4" fill="green"/>
<circle cx="52.1313" cy="1149.248" r="4" fill="green"/>
<circle cx="267.6569" cy="818.8518" r="4" fill="green"/>
<circle cx="53.0283" cy="1102.8342" r="4" fill="green"/>
<circle cx="117.2773" cy="1134.6038" r="4" fill="green"/>
<circle cx="144.0877" cy="1109.105" r="4" fill="green"/>
<circle cx="134.8204" cy="1070.3712" r="4" fill="green"/>
<circle cx="31.5106" cy="1121.8225" r="4" fill="green"/>
<circle cx="188.1862" cy="949.2464" r="4" fill="green"/>
<circle cx="134.1002" cy="989.1659" r="4" fill="green"/>
<circle cx="81.3524" cy="1123.1249" r="4" fill="green"/>
<circle cx="33.6112" cy="1129.7018" r="4" fill="green"/>
<circle cx="269.6582" cy="820.6078" r="4" fill="green"/>
<circle cx="113.7626" cy="1002.0299" r="4" fill="green"/>
<circle cx="80.8821" cy="1138.024" r="4" fill="green"/>
<circle cx="63.2735" cy="1142.3479" r="4" fill="green"/>
<circle cx="40.3913" cy="1120.928" r="4" fill="green"/>
<circle cx="39.1083" cy="1120.3816" r="4" fill="green"/>
<circle cx="137.881" cy="1101.8871" r="4" fill="green"/>
<circle cx="138.0777" cy="1115.8504" r="4" fill="green"/>
<circle cx="119.7434" cy="1130.8603" r="4" fill="green"/>
<circle cx="364.3417" cy="582.2638" r="4" fill="green"/>
<circle cx="26.0707" cy="1119.4417" r="4" fill="green"/>
<circle cx="149.6896" cy="1098.4981" r="4" fill="green"/>
<circle cx="120.0442" cy="1142.9905" r="4" fill="green"/>
<circle cx="42.1999" cy="1097.6825" r="4" fill="green"/>
<circle cx="147.9299" cy="957.6561" r="4" fill="green"/>
<circle cx="124.9696" cy="1061.553" r="4" fill="green"/>
<circle cx="117.5881" cy="1129.9625" r="4" fill="green"/>
<circle cx="111.3949" cy="1012.482" r="4" fill="green"/>
<circle cx="145.7229" cy="956.7192" r="4" fill="green"/>
<circle cx="369.1179" cy="582.5782" r="4" fill="green"/>
<circle cx="137.4255" cy="1091.317" r="4" fill="green"/>
<circle cx="51.8046" cy="1087.0764" r="4" fill="green"/>
<circle cx="135.9281" cy="1105.6698" r="4" fill="green"/>
<circle cx="59.4698" cy="1152.3316" r="4" fill="green"/>
<circle cx="122.3009" cy="1060.421" r="4" fill="green"/>
<circle cx="49.4114" cy="1148.0771" r="4" fill="green"/>
<circle cx="110.9881" cy="1005.7343" r="4" fill="green"/>
<circle cx="117.7544" cy="1022.9371" r="4" fill="green"/>
<circle cx="135.101" cy="947.7836" r="4" fill="green"/>
<circle cx="62.4011" cy="1141.9966" r="4" fill="green"/>
<circle cx="131.412" cy="1103.796" r="4" fill="green"/>
<circle cx="99.2659" cy="1214.1258" r="4" fill="green"/>
<circle cx="158.0172" cy="1080.0915" r="4" fill="green"/>
<circle cx="62.8092" cy="1146.7551" r="4" fill="green"/>
<circle cx="124.2576" cy="965.2533" r="4" fill="green"/>
<circle cx="30.7678" cy="1169.7575" r="4" fill="green"/>
<circle cx="160.6329" cy="1003.5287" r="4" fill="green"/>
<circle cx="46.5081" cy="1104.8214" r="4" fill="green"/>
<circle cx="32.5906" cy="1117.6884" r="4" fill="green"/>
<circle cx="47.7309" cy="1122.4123" r="4" fill="green"/>
<circle cx="181.2403" cy="971.7097" r="4" fill="green"/>
<circle cx="124.7798" cy="1120.9552" r="4" fill="green"/>
<circle cx="51.7268" cy="1137.5079" r="4" fill="green"/>
<circle cx="55.935" cy="1139.2643" r="4" fill="green"/>
<circle cx="55.7211" cy="1155.4117" r="4" fill="green"/>
<circle cx="158.7099" cy="959.9612" r="4" fill="green"/>
<circle cx="54.8875" cy="1081.5779" r="4" fill="green"/>
<circle cx="71.074" cy="1145.5096" r="4" fill="green"/>
<circle cx="58.3469" cy="1140.2791" r="4" fill="green"/>
<circle cx="53.11" cy="1142.6568" r="4" fill="green"/>
<circle cx="65.3776" cy="1143.2456" r="4" fill="green"/>
<circle cx="110.0347" cy="1143.2211" r="4" fill="green"/>
<circle cx="140.7007" cy="1107.6996" r="4" fill="green"/>
<circle cx="131.761" cy="952.3848" r="4" fill="green"/>
<circle cx="31.0264" cy="1165.9743" r="4" fill="green"/>
<circle cx="111.0637" cy="1139.1261" r="4" fill="green"/>
<circle cx="56.7209" cy="1109.0759" r="4" fill="green"/>
<circle cx="57.4004" cy="1086.2591" r="4" fill="green"/>
<circle cx="43.8811" cy="1122.4112" r="4" fill="green"/>
<circle cx="61.0991" cy="1081.1898" r="4" fill="green"/>
<circle cx="116.1954" cy="1141.273" r="4" fill="green"/>
<circle cx="112.6546" cy="1139.7507" r="4" fill="green"/>
<circle cx="132.9942" cy="950.7081" r="4" fill="green"/>
<circle cx="133.1355" cy="971.497" r="4" fill="green"/>
<circle cx="150.3717" cy="1075.0182" r="4" fill="green"/>
<circle cx="132.5436" cy="1099.9741" r="4" fill="green"/>
<circle cx="139.7717" cy="949.7744" r="4" fill="green"/>
<circle cx="171.6532" cy="951.2683" r="4" fill="green"/>
<circle cx="58.8577" cy="1145.0767" r="4" fill="green"/>
</g>
</svg>